<svg xmlns="http://www.w3.org/2000/svg" xml:space="preserve" fill-rule="evenodd" stroke-linejoin="round" stroke-miterlimit="2" clip-rule="evenodd" viewBox="0 0 60 60"><path fill="url(#a)" fill-rule="nonzero" d="M58.147 27.395 32.605 1.855a3.766 3.766 0 0 0-5.328 0L1.853 27.277a3.77 3.77 0 0 0 0 5.329l25.543 25.541a3.768 3.768 0 0 0 5.328 0l25.423-25.422a3.77 3.77 0 0 0 0-5.33Z" transform="translate(-.769 -.77) scale(1.02563)"/><path fill="#fff" fill-rule="nonzero" d="m19.094 9.244 2.673-2.672 6.9 6.9a4.584 4.584 0 0 1 4.72 1.1 4.592 4.592 0 0 1 1.092 4.75l6.65 6.651a4.596 4.596 0 0 1 4.75 7.593 4.598 4.598 0 0 1-7.503-5.001l-6.203-6.202v16.322a4.597 4.597 0 1 1-3.78-.134V22.077a4.596 4.596 0 0 1-2.495-6.03l-6.804-6.804Z"/><defs><linearGradient id="a" x1="0" x2="1" y1="0" y2="0" gradientTransform="matrix(0 58.4987 -58.4987 0 30 .751)" gradientUnits="userSpaceOnUse"><stop offset="0" stop-color="#609926"/><stop offset="1" stop-color="#4e7922"/></linearGradient></defs></svg>